name Precision Landing05_filtered_grf.mot
datacolumns 37
datarows 11
range 1.992000 1.997000
endheader
time	1_ground_force_vx	1_ground_force_vy	1_ground_force_vz	1_ground_force_px	1_ground_force_py	1_ground_force_pz	1_ground_torque_x	1_ground_torque_y	1_ground_torque_z	2_ground_force_vx	2_ground_force_vy	2_ground_force_vz	2_ground_force_px	2_ground_force_py	2_ground_force_pz	2_ground_torque_x	2_ground_torque_y	2_ground_torque_z	3_ground_force_vx	3_ground_force_vy	3_ground_force_vz	3_ground_force_px	3_ground_force_py	3_ground_force_pz	3_ground_torque_x	3_ground_torque_y	3_ground_torque_z	4_ground_force_vx	4_ground_force_vy	4_ground_force_vz	4_ground_force_px	4_ground_force_py	4_ground_force_pz	4_ground_torque_x	4_ground_torque_y	4_ground_torque_z
            1.992000	           -5.990619	          348.042995	          -19.236583	            0.106446	            0.000000	            0.291157	           -0.161440	            9.379312	           -0.518401	            9.552999	          358.569801	            9.787318	           -0.154342	            0.000000	            0.277304	            0.064897	            2.435884	            0.066489	            1.962730	           -1.461200	           -1.103507	            0.352291	            1.256261	            1.892874	           -0.017340	           -0.004891	           -0.022049	           -5.240916	            0.416793	           -2.158427	           -0.288793	            1.264925	            1.901187	           -0.016881	            0.001342	           -0.006952
            1.992500	           -5.926781	          347.457351	          -19.132261	            0.106416	            0.000000	            0.291173	           -0.159970	            9.378248	           -0.516400	            9.572489	          358.703400	            9.715157	           -0.154377	            0.000000	            0.277376	            0.064744	            2.426110	            0.065709	            1.972024	           -1.465530	           -1.097631	            0.352289	            1.256263	            1.892874	           -0.017044	           -0.004996	           -0.022044	           -5.233556	            0.409297	           -2.160970	           -0.288796	            1.264924	            1.901190	           -0.017042	            0.001333	           -0.007037
            1.993000	           -5.871011	          346.889569	          -19.027667	            0.106386	            0.000000	            0.291188	           -0.158698	            9.376712	           -0.514334	            9.595378	          358.842281	            9.642926	           -0.154414	            0.000000	            0.277448	            0.064622	            2.416699	            0.064942	            1.980922	           -1.468298	           -1.091629	            0.352287	            1.256264	            1.892876	           -0.016763	           -0.005086	           -0.021999	           -5.226938	            0.402094	           -2.162999	           -0.288800	            1.264924	            1.901193	           -0.017217	            0.001324	           -0.007125
            1.993500	           -5.823393	          346.340228	          -18.922472	            0.106355	            0.000000	            0.291203	           -0.157627	            9.374702	           -0.512192	            9.621656	          358.986368	            9.571066	           -0.154452	            0.000000	            0.277519	            0.064532	            2.407718	            0.064193	            1.989352	           -1.469452	           -1.085563	            0.352285	            1.256265	            1.892877	           -0.016501	           -0.005159	           -0.021916	           -5.221067	            0.395214	           -2.164521	           -0.288803	            1.264923	            1.901196	           -0.017405	            0.001317	           -0.007216
            1.994000	           -5.783994	          345.809866	          -18.816371	            0.106323	            0.000000	            0.291217	           -0.156759	            9.372223	           -0.509966	            9.651311	          359.135575	            9.500024	           -0.154491	            0.000000	            0.277591	            0.064476	            2.399233	            0.063466	            1.997250	           -1.468944	           -1.079488	            0.352283	            1.256266	            1.892878	           -0.016261	           -0.005216	           -0.021795	           -5.215958	            0.388693	           -2.165510	           -0.288807	            1.264922	            1.901200	           -0.017605	            0.001312	           -0.007309
            1.994500	           -5.752859	          345.298978	          -18.709082	            0.106292	            0.000000	            0.291230	           -0.156097	            9.369282	           -0.507649	            9.684325	          359.289807	            9.430255	           -0.154531	            0.000000	            0.277662	            0.064456	            2.391313	            0.062765	            2.004557	           -1.466739	           -1.073457	            0.352281	            1.256267	            1.892879	           -0.016046	           -0.005259	           -0.021636	           -5.211621	            0.382568	           -2.165942	           -0.288811	            1.264921	            1.901203	           -0.017816	            0.001308	           -0.007404
            1.995000	           -5.730019	          344.808014	          -18.600350	            0.106260	            0.000000	            0.291243	           -0.155642	            9.365893	           -0.505234	            9.720679	          359.448960	            9.362217	           -0.154571	            0.000000	            0.277732	            0.064472	            2.384026	            0.062094	            2.011212	           -1.462814	           -1.067519	            0.352279	            1.256268	            1.892880	           -0.015859	           -0.005287	           -0.021442	           -5.208057	            0.376880	           -2.165801	           -0.288814	            1.264921	            1.901206	           -0.018038	            0.001305	           -0.007501
            1.995500	           -5.715484	          344.337373	          -18.489950	            0.106227	            0.000000	            0.291254	           -0.155396	            9.362072	           -0.502717	            9.760344	          359.612922	            9.296364	           -0.154612	            0.000000	            0.277802	            0.064527	            2.377438	            0.061459	            2.017176	           -1.457152	           -1.061713	            0.352277	            1.256269	            1.892882	           -0.015702	           -0.005303	           -0.021214	           -5.205266	            0.371678	           -2.165063	           -0.288818	            1.264920	            1.901210	           -0.018271	            0.001305	           -0.007600
            1.996000	           -5.709248	          343.887410	          -18.377686	            0.106195	            0.000000	            0.291266	           -0.155360	            9.357841	           -0.500092	            9.803287	          359.781567	            9.233143	           -0.154654	            0.000000	            0.277871	            0.064621	            2.371615	            0.060863	            2.022386	           -1.449776	           -1.056090	            0.352275	            1.256270	            1.892884	           -0.015577	           -0.005307	           -0.020955	           -5.203230	            0.367002	           -2.163741	           -0.288823	            1.264919	            1.901213	           -0.018515	            0.001306	           -0.007699
            1.996500	           -5.711287	          343.458425	          -18.263395	            0.106162	            0.000000	            0.291276	           -0.155533	            9.353226	           -0.497358	            9.849470	          359.954763	            9.172991	           -0.154697	            0.000000	            0.277939	            0.064758	            2.366619	            0.060310	            2.026797	           -1.440714	           -1.050693	            0.352272	            1.256271	            1.892886	           -0.015485	           -0.005302	           -0.020665	           -5.201929	            0.362900	           -2.161841	           -0.288827	            1.264918	            1.901217	           -0.018770	            0.001309	           -0.007800
            1.997000	           -5.721562	          343.050668	          -18.146948	            0.106130	            0.000000	            0.291286	           -0.155915	            9.348253	           -0.494511	            9.898844	          360.132365	            9.116331	           -0.154740	            0.000000	            0.278006	            0.064938	            2.362509	            0.059804	            2.030377	           -1.430007	           -1.045558	            0.352270	            1.256272	            1.892888	           -0.015430	           -0.005291	           -0.020350	           -5.201337	            0.359416	           -2.159379	           -0.288831	            1.264917	            1.901221	           -0.019035	            0.001315	           -0.007903
